# xmcd
#
# Track frame offsets: 
#        150
#        21648
#        44253
#        74475
#        93032
#        128943
#        157678
#        178632
#        203233
#        228932
#        261396
#
# Disc length: 3988 seconds
#
# Revision: 0
# Processed by: cddbd v1.5.2PL0 Copyright (c) Steve Scherf et al.
# Submitted via: ExactAudioCopy v1.0b1
#
DISCID=930f920b
DTITLE=AROUND THE BLUES - AROUND THE BLUES
DYEAR=2011
DGENRE=Blues
TTITLE0=1.When He Woke Up
TTITLE1=2.You Didn't Make It
TTITLE2=3.Blues Ain't Nothing But...
TTITLE3=4.I Need To Get Along
TTITLE4=5.A Change
TTITLE5=6.Cry Over Me
TTITLE6=7.It's Not Alright
TTITLE7=8.Give Me A Break Papa
TTITLE8=9.Standing In The Rain
TTITLE9=10.Let's Be Like The Flowers
TTITLE10=11.Walk Of Life
EXTD=
EXTT0=
EXTT1=
EXTT2=
EXTT3=
EXTT4=
EXTT5=
EXTT6=
EXTT7=
EXTT8=
EXTT9=
EXTT10=
PLAYORDER=
